# xmcd
#
# Track frame offsets: 
#        150
#        16568
#        31893
#        45302
#        65702
#        82669
#        102440
#        115896
#        137442
#        152901
#        172142
#        187303
#        205523
#        223237
#        250434
#
# Disc length: 3564 seconds
#
# Revision: 10
# Processed by: cddbd v1.5.2PL0 Copyright (c) Steve Scherf et al.
# Submitted via: ExactAudioCopy v0.90b4
#
DISCID=cc0dea0f
DTITLE=Gotthard - Lipservice
DYEAR=2005
DGENRE=Hard Rock
TTITLE0=All We Are
TTITLE1=Dream On
TTITLE2=Lift U Up
TTITLE3=Everything I Want
TTITLE4=Cupid's Arrow
TTITLE5=I Wonder
TTITLE6=I'm Alive
TTITLE7=I've Seen An Angel Cry
TTITLE8=Stay For The Night
TTITLE9=Anytime Anywhere
TTITLE10=Said and Done
TTITLE11=The Other Side Of Me
TTITLE12=Nothing Left At All
TTITLE13=And Then Goodbye
TTITLE14=Gotthard - Data Track
EXTD=
EXTT0=
EXTT1=
EXTT2=
EXTT3=
EXTT4=
EXTT5=
EXTT6=
EXTT7=
EXTT8=
EXTT9=
EXTT10=
EXTT11=
EXTT12=
EXTT13=
EXTT14=
PLAYORDER=
